# xmcd
#
# Track frame offsets:
#	150
#	21152
#	39670
#	57915
#	76985
#	120532
#	136035
#	156012
#	171977
#	193752
#	218877
#	236750
#	259977
#	284260
#	305352
#	326235
#
# Disc length: 4606 seconds
#
# Revision: 34
# Processed by: cddbd v1.5.2PL0 Copyright (c) Steve Scherf et al.
# Submitted via: EasyCDDAExtractor 15.3.0.1
#
DISCID=e611fc10
DTITLE=Eros Ramazzotti - Eros
DYEAR=1997
DGENRE=Latin
TTITLE0=Tierra Prometida
TTITLE1=Una Historia Importante
TTITLE2=Ahora Tu
TTITLE3=Fantastico Amor
TTITLE4=Musica E (Dueto Con Andrea Bocelli)
TTITLE5=Ojos De Esperanza
TTITLE6=La Cosa Mas Bella
TTITLE7=Memories
TTITLE8=Cosas De La Vida (Can't Stop Thinking Of You) (Dueto Con Tina Turner)
TTITLE9=La Aurora
TTITLE10=Un Minuto De Sol
TTITLE11=Casi Amor
TTITLE12=Si Bastasen Un Par De Canciones
TTITLE13=Otra Como Tu
TTITLE14=Fabula
TTITLE15=Cuanto Amor Me Das
EXTD=
EXTT0=
EXTT1=
EXTT2=
EXTT3=
EXTT4=
EXTT5=
EXTT6=
EXTT7=
EXTT8=
EXTT9=
EXTT10=
EXTT11=
EXTT12=
EXTT13=
EXTT14=
EXTT15=
PLAYORDER=
